<?xml version="1.0" standalone="no"?>
<!DOCTYPE svg PUBLIC "-//W3C//DTD SVG 20010904//EN"
 "http://www.w3.org/TR/2001/REC-SVG-20010904/DTD/svg10.dtd">
<svg version="1.0" xmlns="http://www.w3.org/2000/svg"
 width="1472.000000pt" height="832.000000pt" viewBox="0 0 1472.000000 832.000000"
 preserveAspectRatio="xMidYMid meet">

<g transform="translate(0.000000,832.000000) scale(0.100000,-0.100000)"
fill="#000000" stroke="none">
<path d="M0 4160 l0 -4160 7360 0 7360 0 0 3930 c0 2162 -2 3930 -4 3930 -3 0
-19 -13 -37 -29 -18 -17 -57 -47 -88 -68 -30 -21 -63 -46 -73 -55 -10 -10 -23
-18 -29 -18 -5 0 -8 -4 -5 -9 3 -5 0 -11 -7 -14 -16 -6 -177 -135 -245 -197
-18 -17 -37 -30 -42 -30 -6 0 -10 -4 -10 -10 0 -5 -6 -10 -13 -10 -8 0 -24
-11 -37 -25 -13 -14 -29 -25 -36 -25 -6 0 -14 -7 -18 -15 -3 -8 -11 -15 -19
-15 -7 0 -30 -16 -50 -35 -20 -19 -41 -35 -47 -35 -5 0 -15 -9 -22 -20 -7 -11
-17 -20 -23 -20 -15 -1 -55 -37 -55 -49 0 -6 -11 -16 -25 -21 -14 -5 -28 -17
-31 -25 -4 -8 -13 -15 -21 -15 -8 0 -31 -16 -49 -34 -19 -19 -44 -38 -54 -41
-11 -4 -20 -11 -20 -16 0 -5 -6 -9 -13 -9 -7 0 -26 -13 -42 -30 -16 -16 -35
-30 -42 -30 -7 0 -13 -4 -13 -10 0 -5 -7 -10 -15 -10 -8 0 -15 -3 -15 -7 0 -5
-13 -17 -29 -28 -16 -10 -27 -23 -25 -27 3 -4 -2 -8 -10 -8 -9 0 -16 -5 -16
-11 0 -5 -4 -8 -8 -5 -5 3 -26 -10 -47 -29 -21 -19 -41 -35 -45 -35 -4 0 -15
-9 -25 -20 -10 -11 -28 -20 -40 -20 -12 0 -30 -9 -40 -20 -10 -11 -14 -20 -9
-20 5 0 -9 -9 -31 -20 -22 -11 -62 -40 -89 -65 -26 -25 -52 -45 -57 -45 -5 0
-9 -4 -9 -10 0 -5 -8 -10 -18 -10 -10 0 -32 -13 -48 -30 -16 -16 -32 -30 -37
-30 -4 0 -32 -23 -62 -52 -30 -28 -68 -57 -85 -64 -17 -7 -33 -20 -36 -29 -3
-8 -12 -15 -20 -15 -7 0 -18 -8 -23 -18 -5 -10 -22 -24 -38 -32 -15 -8 -37
-24 -49 -36 -11 -12 -42 -31 -68 -42 -25 -12 -49 -28 -52 -37 -4 -9 -13 -14
-21 -11 -8 3 -11 1 -8 -4 3 -5 -11 -18 -32 -27 -42 -20 -66 -41 -76 -66 -3 -9
-14 -17 -24 -17 -22 -1 -51 -22 -55 -40 -4 -18 -72 -50 -104 -50 -19 0 -24 -5
-24 -25 0 -17 -6 -25 -17 -25 -27 0 -83 -38 -83 -55 0 -18 -17 -20 -23 -2 -3
8 -11 5 -24 -10 -11 -13 -27 -23 -35 -23 -8 0 -23 -9 -34 -21 -12 -13 -26 -18
-39 -15 -15 4 -29 -2 -43 -19 -19 -22 -28 -24 -62 -19 -27 4 -40 3 -40 -5 0
-6 9 -11 19 -11 11 0 23 -5 26 -10 4 -6 -5 -10 -19 -10 -20 0 -26 -5 -27 -22
l0 -23 -10 23 c-5 13 -14 20 -20 17 -6 -4 -8 -13 -5 -21 10 -25 -17 -27 -37
-3 -17 20 -19 20 -12 4 4 -11 10 -30 13 -43 4 -20 2 -22 -20 -17 -19 5 -32 0
-53 -19 -15 -14 -31 -26 -36 -26 -4 0 -24 -16 -44 -35 -20 -20 -49 -38 -66
-42 -16 -3 -29 -12 -29 -19 0 -10 -13 -14 -39 -14 -30 0 -40 -4 -44 -20 -6
-22 -36 -26 -67 -10 -15 8 -17 6 -13 -10 3 -11 9 -23 14 -26 15 -9 10 -27 -5
-21 -22 9 -86 -12 -86 -27 0 -19 -73 -48 -83 -32 -5 7 -15 2 -32 -16 -13 -16
-29 -28 -35 -28 -5 0 -10 -7 -10 -15 0 -11 -11 -15 -38 -15 -28 0 -41 -6 -52
-22 -8 -13 -14 -26 -15 -30 -1 -17 -15 -18 -37 -4 -28 18 -98 11 -98 -10 0
-10 -13 -14 -40 -14 -29 0 -40 4 -40 15 0 22 -17 18 -23 -5 -3 -11 -10 -20
-17 -20 -7 0 -14 9 -17 20 -6 23 -23 27 -23 5 0 -12 -17 -15 -89 -15 -84 0
-91 -2 -109 -25 -11 -14 -25 -25 -31 -25 -6 0 -11 -7 -11 -16 0 -14 -10 -15
-80 -9 -56 5 -80 4 -80 -4 0 -6 17 -11 40 -11 29 0 40 -4 40 -15 0 -11 -11
-15 -40 -15 -22 0 -40 5 -40 10 0 6 -33 10 -80 10 -64 0 -80 -3 -80 -15 0 -8
-8 -15 -17 -15 -17 -1 -17 -1 0 -14 9 -7 17 -18 17 -25 0 -16 -28 -14 -37 4
-6 11 -21 13 -66 8 -31 -3 -57 -10 -57 -14 0 -5 -18 -9 -40 -9 -29 0 -40 -4
-40 -15 0 -11 -11 -15 -40 -15 -29 0 -40 4 -40 15 0 11 -11 15 -40 15 -29 0
-40 -4 -40 -15 0 -12 -17 -15 -90 -15 -86 0 -92 -1 -116 -27 -17 -19 -27 -24
-31 -15 -6 14 -83 17 -83 2 0 -5 -18 -10 -40 -10 -29 0 -40 -4 -40 -15 0 -8
-4 -15 -9 -15 -5 0 -11 -9 -14 -20 -7 -26 -27 -26 -34 0 -10 36 -25 21 -21
-20 3 -38 2 -40 -24 -40 -17 0 -34 -9 -47 -26 -18 -23 -26 -25 -57 -20 -31 6
-36 4 -41 -13 -3 -12 -9 -21 -14 -21 -5 0 -9 -18 -9 -40 0 -36 -2 -40 -25 -40
-19 0 -25 -5 -25 -23 0 -13 -6 -29 -12 -35 -17 -17 9 -34 37 -25 17 5 18 4 7
-9 -13 -16 -7 -48 9 -48 5 0 14 -11 19 -25 5 -14 21 -30 35 -37 14 -6 25 -17
25 -24 0 -14 28 -27 41 -18 5 3 9 -2 9 -10 0 -8 15 -25 33 -37 36 -26 147
-139 147 -151 0 -5 6 -8 14 -8 15 0 36 -49 36 -86 0 -13 3 -24 8 -24 15 0 44
-69 66 -154 24 -92 28 -247 7 -254 -6 -2 -9 -8 -5 -13 3 -5 0 -9 -5 -9 -6 0
-11 -8 -11 -17 0 -14 -4 -13 -25 7 -13 12 -24 25 -23 29 1 6 -5 24 -27 76 -6
17 -18 46 -25 65 -7 19 -18 40 -23 45 -7 7 -7 5 -2 -4 5 -9 4 -12 -3 -7 -7 4
-12 12 -12 17 0 19 -43 67 -55 63 -9 -4 -11 4 -9 23 4 24 3 25 -5 8 -5 -11
-10 -14 -10 -7 -1 7 -12 17 -26 22 -14 5 -25 15 -25 21 0 16 -13 2 -16 -16 -1
-8 5 -15 14 -16 10 0 12 -3 5 -5 -7 -3 -9 -12 -6 -20 3 -9 -1 -14 -12 -14 -12
0 -16 6 -12 20 8 32 -14 36 -39 7 -26 -31 -41 -34 -46 -10 -3 15 -4 15 -17 0
-12 -15 -11 -17 3 -17 13 0 16 -13 16 -80 l0 -80 -40 0 c-40 0 -40 0 -40 -40
l0 -39 83 -4 c45 -3 -272 -3 -706 -2 -433 1 -790 4 -793 7 -7 8 63 125 110
183 127 157 308 324 466 430 57 38 45 46 -32 21 -24 -8 -70 -17 -103 -21 -247
-29 -467 -116 -695 -275 -97 -68 -227 -168 -313 -241 -64 -55 -74 -41 -11 17
27 25 48 50 46 56 -2 6 4 8 13 4 9 -3 14 -2 10 3 -3 5 7 19 22 31 38 30 192
171 277 254 67 64 54 56 -69 -48 -100 -84 -302 -225 -395 -274 -82 -43 -263
-119 -302 -126 -7 -1 -33 -8 -57 -15 -24 -7 -58 -10 -75 -7 -17 3 -47 1 -66
-3 -27 -7 -30 -9 -11 -10 13 -1 22 -4 18 -7 -3 -3 -31 0 -62 6 -31 6 -59 9
-62 6 -4 -3 9 -9 27 -13 32 -6 33 -7 10 -15 -13 -5 -78 -10 -144 -12 -81 -3
-101 -1 -61 3 l60 8 -72 1 c-54 2 -73 6 -73 16 0 8 8 12 23 9 12 -2 47 0 77 5
l55 10 -73 -2 c-41 0 -76 4 -80 10 -4 5 -23 15 -42 21 -24 8 -29 11 -14 12 13
1 24 9 27 21 4 15 14 20 39 21 18 1 24 3 13 5 -32 7 -110 -11 -107 -24 3 -15
-3 -15 -27 -1 -30 19 -68 4 -74 -31 -4 -16 -11 -30 -16 -30 -18 0 75 215 131
305 113 180 260 314 455 413 155 79 459 198 656 257 88 27 157 53 157 60 0 6
11 18 25 25 13 7 22 16 20 20 -2 4 1 7 8 8 7 1 37 6 67 12 30 7 96 10 146 8
51 -1 90 0 87 5 -2 4 5 7 17 7 12 0 47 13 80 29 42 21 61 26 69 18 8 -8 11 -8
11 1 0 7 7 12 16 12 8 0 12 5 9 10 -3 6 -1 10 4 10 14 0 14 -33 0 -90 -6 -25
-12 -56 -14 -70 -4 -46 -17 -90 -26 -90 -5 0 -9 -12 -9 -27 0 -15 -4 -40 -10
-57 -23 -72 -53 -224 -52 -262 1 -33 -3 -44 -21 -53 -18 -9 -18 -11 -2 -6 11
4 79 24 150 46 72 21 135 39 141 39 7 0 39 13 72 30 34 16 68 30 76 30 8 0 18
5 21 10 3 6 13 10 21 10 19 0 240 133 284 171 189 165 466 451 454 470 -8 14
-22 11 -42 -8 -108 -105 -274 -211 -529 -340 -120 -61 -228 -114 -240 -118
-23 -6 -23 -6 -23 112 0 65 7 161 15 214 12 86 65 264 93 315 47 86 93 159
134 211 26 35 48 65 48 68 0 3 -36 -23 -81 -57 -85 -65 -183 -170 -234 -250
-17 -26 -36 -47 -42 -48 -7 0 -13 -6 -13 -14 0 -24 -41 -87 -52 -80 -6 4 -7
19 -4 35 3 16 2 29 -2 29 -5 0 -14 24 -22 53 -13 54 -121 271 -169 342 -48 70
-106 157 -117 177 -17 29 -34 45 -34 31 0 -6 3 -13 8 -15 12 -5 51 -88 41 -88
-5 0 -9 3 -9 8 0 4 -9 13 -20 20 -19 11 -19 11 -9 -6 10 -16 8 -25 -14 -54
-16 -20 -27 -48 -27 -66 0 -17 -7 -37 -15 -45 -11 -12 -12 -17 -2 -20 9 -4 9
-6 0 -6 -8 -1 -11 -11 -7 -28 7 -39 -7 -54 -52 -58 -37 -3 -43 1 -104 64 -73
75 -82 86 -128 154 -18 26 -30 52 -26 59 5 7 3 8 -6 3 -10 -6 -12 -4 -7 9 4 9
3 15 -2 12 -5 -3 -18 17 -30 46 -22 54 -26 72 -13 64 5 -3 7 9 4 27 -2 21 0
28 6 19 7 -10 15 -8 39 12 17 14 36 26 43 26 6 0 9 4 5 9 -3 5 9 8 27 7 18 -2
41 1 51 6 11 6 17 5 17 -2 0 -6 4 -9 9 -5 5 3 16 -1 24 -9 9 -9 19 -11 28 -5
19 12 32 11 24 -1 -4 -6 9 -17 27 -24 25 -11 35 -11 40 -3 12 19 9 34 -3 17
-9 -12 -10 -10 -6 8 4 15 -8 48 -33 95 -41 77 -75 188 -85 277 -5 40 -4 51 4
40 9 -13 11 -13 11 2 0 14 4 13 25 -8 26 -26 38 -24 86 15 10 8 28 16 41 18
12 2 25 7 28 12 3 4 22 14 43 22 20 7 37 17 37 21 0 4 6 8 13 8 19 0 48 34 49
56 1 11 -17 50 -40 88 -23 37 -42 70 -42 73 0 2 -11 21 -25 41 -45 66 -26 68
21 2 53 -74 72 -95 55 -62 -8 14 -8 22 -1 22 5 0 10 -6 10 -12 0 -10 3 -9 9 1
7 11 11 10 21 -5 11 -18 11 -18 6 0 -5 14 -3 17 11 11 35 -13 120 -18 127 -6
4 6 18 11 32 11 13 0 24 4 24 9 0 5 21 16 47 25 26 9 59 28 74 42 15 14 30 26
33 25 19 -3 24 1 19 19 -4 15 0 20 16 20 13 0 21 6 21 18 0 17 52 42 93 45 11
1 17 7 14 17 -3 11 14 29 49 54 30 20 54 41 54 45 0 5 14 14 30 21 17 7 30 16
30 21 0 5 13 15 30 24 16 8 47 32 68 53 21 20 55 50 75 65 20 15 37 35 37 43
0 7 7 14 15 14 33 0 118 71 95 78 -6 2 -7 8 -4 13 3 6 11 5 20 -2 12 -10 16
-8 21 9 3 12 12 22 20 22 8 0 35 14 60 30 24 17 50 30 58 30 7 0 15 10 17 23
2 12 8 22 13 23 23 2 63 23 68 37 3 8 36 35 74 60 37 25 90 66 117 91 26 25
51 46 55 46 3 1 22 14 41 30 19 17 40 30 47 30 7 0 17 9 23 20 6 11 15 20 20
20 6 0 19 8 30 18 102 91 167 142 178 142 6 0 26 15 44 33 18 18 63 52 101 76
37 24 65 46 62 49 -3 3 10 13 28 21 31 15 61 39 121 99 13 12 27 22 32 22 5 0
15 9 22 20 7 11 17 20 23 20 7 0 35 25 64 55 29 30 58 55 63 55 5 0 15 7 22
15 11 13 -551 15 -5049 15 l-5061 0 0 -4160z m5885 1395 c66 -8 152 -15 190
-16 62 -2 64 -3 20 -7 -58 -4 -309 15 -351 28 -28 8 -28 8 -4 9 14 0 79 -6
145 -14z m830 -53 c190 -41 320 -120 443 -270 59 -72 143 -223 158 -284 5 -21
2 -28 -9 -28 -8 0 -17 9 -20 20 -3 14 -14 20 -34 21 -50 3 -116 -1 -183 -11
-80 -12 -185 -21 -310 -27 -121 -6 -259 21 -357 69 -118 58 -258 176 -247 208
3 8 2 11 -2 8 -7 -8 -34 16 -34 30 0 5 -7 15 -16 22 -8 8 -20 23 -26 34 -6 12
10 -1 36 -27 25 -27 72 -60 104 -75 49 -23 69 -26 147 -26 132 2 235 44 318
129 64 66 86 145 50 178 -30 26 -128 39 -358 47 l-220 8 235 -3 c185 -3 254
-8 325 -23z m790 -152 c3 -5 1 -10 -4 -10 -6 0 -11 5 -11 10 0 6 2 10 4 10 3
0 8 -4 11 -10z m-79 -21 c4 -8 9 -7 15 2 7 11 9 11 9 1 0 -7 19 -31 43 -53
l42 -41 -62 41 c-62 41 -83 61 -64 61 5 0 13 -5 17 -11z m59 1 c3 -5 1 -10 -4
-10 -6 0 -11 5 -11 10 0 6 2 10 4 10 3 0 8 -4 11 -10z m385 -329 c0 -5 -7 -12
-16 -15 -14 -5 -15 -4 -4 9 14 17 20 19 20 6z m1890 -56 c0 -11 -11 -15 -40
-15 -29 0 -40 4 -40 15 0 11 11 15 40 15 29 0 40 -4 40 -15z m-450 -69 c0 -2
-7 -9 -15 -16 -12 -10 -15 -10 -15 4 0 9 7 16 15 16 8 0 15 -2 15 -4z m-1983
-82 c-3 -3 -12 -4 -19 -1 -8 3 -5 6 6 6 11 1 17 -2 13 -5z m1743 -59 c0 -8 -7
-15 -15 -15 -8 0 -15 7 -15 15 0 8 7 15 15 15 8 0 15 -7 15 -15z m-10 -259 c0
-3 -4 -8 -10 -11 -5 -3 -10 -1 -10 4 0 6 5 11 10 11 6 0 10 -2 10 -4z m-3210
-761 c-11 -13 -8 -15 21 -16 27 -1 29 -3 9 -6 -14 -2 -30 -11 -36 -19 -10 -13
-12 -12 -18 1 -7 19 10 55 26 55 7 0 6 -5 -2 -15z m27 -50 c0 -8 -4 -12 -9 -9
-5 3 -6 10 -3 15 9 13 12 11 12 -6z m-82 -25 c-4 -12 -9 -19 -12 -17 -3 3 -2
15 2 27 4 12 9 19 12 17 3 -3 2 -15 -2 -27z m628 23 c-7 -2 -19 -2 -25 0 -7 3
-2 5 12 5 14 0 19 -2 13 -5z m2765 0 c-10 -2 -28 -2 -40 0 -13 2 -5 4 17 4 22
1 32 -1 23 -4z m80 0 c-10 -2 -26 -2 -35 0 -10 3 -2 5 17 5 19 0 27 -2 18 -5z
m-2737 -407 c31 -8 98 -18 149 -21 52 -3 99 -10 105 -15 7 -6 15 -7 18 -3 4 3
7 2 7 -3 0 -5 14 -18 31 -28 33 -20 34 -36 2 -103 -13 -29 -13 -34 0 -54 15
-21 16 -20 50 32 19 30 38 64 42 77 5 19 3 22 -19 22 -62 0 -29 45 41 56 26 4
94 4 152 1 58 -3 152 -2 208 4 87 9 111 8 165 -7 73 -19 165 -25 192 -11 48
24 236 -1 236 -31 0 -7 5 -10 10 -7 6 3 13 -1 16 -9 3 -8 14 -18 24 -21 12 -4
16 -12 13 -25 -4 -14 0 -20 12 -20 12 0 15 5 10 18 -5 13 -3 14 5 6 12 -12 -7
-55 -55 -128 -14 -21 -14 -28 5 -80 12 -31 25 -56 29 -56 10 0 139 271 147
308 5 25 4 25 -9 10 -17 -22 -37 -23 -37 -4 0 21 12 26 80 33 43 4 65 2 77 -8
11 -10 14 -10 9 -1 -8 14 -5 15 18 6 9 -3 16 -13 16 -21 0 -8 4 -12 9 -9 27
17 23 -188 -4 -227 -13 -18 -14 -18 -17 4 -2 13 -8 -38 -12 -113 -9 -148 -8
-147 -63 -132 -23 6 -23 9 -23 172 0 91 -3 163 -6 160 -9 -10 -115 -240 -131
-285 -13 -36 -20 -43 -42 -43 -25 0 -32 11 -88 128 -34 70 -66 142 -73 159 -7
18 -16 30 -21 27 -5 -3 -9 -74 -9 -158 0 -151 0 -154 -22 -158 -51 -9 -55 -3
-62 94 -3 50 -6 153 -6 230 0 76 -3 138 -7 138 -19 -1 -36 -21 -60 -71 -22
-46 -26 -66 -24 -135 3 -93 -9 -131 -60 -189 -49 -55 -98 -75 -192 -75 -63 0
-87 5 -126 24 -132 67 -171 252 -80 376 29 39 20 46 -28 22 -48 -25 -100 -76
-118 -116 -20 -46 -51 -80 -64 -72 -8 5 -8 13 0 29 9 21 9 21 -5 3 -19 -23
-13 -38 63 -162 33 -54 59 -99 57 -101 -1 -2 -24 0 -49 3 -45 7 -48 9 -98 87
l-52 80 -21 -36 c-11 -20 -33 -59 -48 -87 -28 -49 -29 -50 -76 -50 -27 0 -51
3 -55 6 -3 3 23 47 59 97 106 152 105 125 12 261 -69 100 -84 117 -102 112
-11 -3 -27 -6 -33 -6 -7 0 -12 -3 -12 -7 1 -5 1 -18 0 -30 -1 -22 -4 -23 -106
-23 l-105 0 0 -66 0 -65 78 1 c42 1 83 1 90 1 7 -1 12 -15 12 -35 l0 -34 -92
-8 -93 -9 -3 -34 c-2 -19 -1 -44 2 -57 6 -22 11 -23 114 -26 l107 -3 0 -35 0
-35 -150 0 -150 0 -6 235 c-3 129 -6 236 -7 238 -1 2 -14 2 -29 0 -19 -2 -29
-11 -36 -33 -6 -16 -15 -33 -20 -37 -6 -3 -11 -34 -13 -68 -2 -54 -6 -66 -33
-94 -17 -18 -28 -36 -24 -40 4 -4 0 -4 -9 -1 -35 14 -25 -17 34 -104 34 -50
59 -94 55 -97 -3 -3 -28 -3 -54 1 -48 6 -49 7 -102 91 l-53 85 -42 -3 -41 -3
2 -82 1 -83 -42 0 -43 0 -6 226 c-4 204 -7 227 -24 239 -27 21 -38 13 -41 -29
l-3 -37 -72 3 -72 3 4 -201 c2 -116 0 -204 -6 -207 -5 -3 -28 -3 -51 0 l-42 6
0 198 0 199 -68 0 -69 0 -11 37 c-6 20 -10 38 -8 40 1 1 81 5 177 8 96 2 197
6 226 7 28 2 49 0 47 -4 -3 -5 7 -8 21 -8 15 0 24 4 20 10 -6 10 44 13 286 14
106 1 130 4 146 19 12 10 36 17 59 17 22 0 44 4 50 9 9 9 37 18 64 20 9 0 41
-6 71 -13z m2945 -53 l109 -8 -115 -6 c-111 -5 -109 -5 58 -7 l172 -2 0 -35 0
-35 -59 0 c-95 0 -89 16 -83 -211 l5 -200 -44 3 -44 3 -3 198 -2 197 -80 0
c-76 0 -80 1 -80 22 0 12 -9 32 -21 44 -42 45 -15 50 187 37z m-824 -26 c5
-10 13 -15 19 -12 5 4 9 0 9 -9 0 -8 5 -16 11 -18 15 -5 20 -80 6 -97 -7 -8
-7 -12 -2 -9 6 4 10 -14 11 -45 0 -44 38 -157 92 -279 2 -5 -15 -8 -38 -8 -39
0 -42 2 -60 45 l-20 46 -112 -3 -112 -3 -17 -45 c-9 -25 -22 -45 -28 -44 -6 1
-29 2 -51 3 l-40 1 23 48 c41 80 140 363 141 401 1 20 6 40 11 44 6 4 41 6 78
5 53 -3 71 -8 79 -21z m471 12 c40 -6 76 -16 80 -23 5 -6 5 0 2 14 -4 17 -3
21 3 11 5 -7 15 -10 21 -6 8 5 10 -2 5 -22 -6 -27 -6 -27 9 -8 9 11 17 16 17
12 0 -13 -37 -57 -42 -51 -3 3 1 -16 10 -41 20 -62 5 -113 -47 -157 l-38 -32
44 -70 c25 -39 54 -80 64 -92 25 -27 20 -30 -36 -26 -50 4 -63 17 -127 126
-26 44 -29 46 -74 46 l-46 0 3 -85 c2 -46 1 -85 -3 -85 -5 0 -26 0 -48 0 l-40
0 0 224 c0 139 -4 227 -10 231 -28 18 1 25 103 27 l112 2 -110 6 -110 6 93 2
c51 1 126 -3 165 -9z m64 5 c-3 -3 -12 -4 -19 -1 -8 3 -5 6 6 6 11 1 17 -2 13
-5z m-3647 -729 c0 -11 -12 -15 -48 -15 -44 0 -49 -2 -47 -22 1 -20 6 -22 38
-20 28 3 37 0 37 -12 0 -11 -10 -16 -34 -16 -25 0 -35 -5 -39 -19 -7 -30 7
-42 46 -39 49 3 57 -8 11 -16 -21 -4 -41 -3 -47 3 -5 5 -16 7 -24 4 -12 -5
-14 7 -11 71 1 42 0 76 -4 76 -5 0 -8 5 -8 10 0 6 28 10 65 10 51 0 65 -3 65
-15z m75 -46 l19 -62 24 56 c22 51 52 83 52 54 0 -20 -58 -161 -67 -164 -19
-6 -33 17 -61 95 l-29 82 22 0 c18 0 25 -10 40 -61z m215 42 c0 -17 -6 -19
-40 -17 -29 2 -40 -1 -40 -10 0 -25 5 -28 33 -25 19 2 27 -2 27 -13 0 -16 -3
-17 -41 -20 -13 0 -25 -11 -30 -23 -8 -22 -6 -23 46 -23 42 0 55 -3 55 -15 0
-12 -13 -15 -60 -15 l-60 0 0 53 c0 28 3 69 6 90 7 37 7 37 55 37 42 0 49 -3
49 -19z m233 -21 l24 -40 17 37 17 38 89 1 c68 0 90 -3 90 -13 0 -7 -11 -13
-25 -13 -24 0 -25 -2 -25 -75 0 -60 -3 -75 -15 -75 -12 0 -15 14 -16 60 -1 33
-2 65 -3 72 -1 15 -46 39 -59 31 -15 -9 -57 -106 -57 -130 0 -14 -6 -23 -15
-23 -9 0 -15 9 -15 25 0 27 -32 99 -58 128 -14 15 -13 17 6 17 14 0 29 -14 45
-40z m417 -50 c0 -83 -1 -90 -20 -90 -17 0 -20 7 -20 40 l0 40 -40 0 -40 0 0
-40 c0 -28 -4 -40 -14 -40 -11 0 -15 20 -18 85 -3 74 -1 85 14 85 12 0 18 -10
20 -32 3 -30 6 -33 41 -36 36 -3 37 -3 37 32 0 31 9 43 33 45 4 1 7 -39 7 -89z
m196 74 c-3 -9 -6 -49 -6 -91 0 -64 -2 -74 -17 -71 -9 2 -36 34 -60 73 l-43
69 0 -67 c0 -37 -2 -67 -4 -67 -2 0 -11 -3 -20 -6 -14 -5 -16 6 -16 81 l0 86
28 -3 c20 -2 35 -16 57 -50 17 -26 33 -47 38 -47 4 -1 7 21 7 48 0 46 7 58 34
60 4 1 5 -6 2 -15z m154 1 c11 -13 7 -15 -25 -15 -48 0 -75 -23 -75 -65 0 -43
40 -74 71 -55 11 7 11 15 2 40 -10 27 -9 30 7 30 29 0 40 -68 15 -87 -43 -31
-110 -7 -125 45 -8 29 -6 42 12 73 12 21 28 40 37 42 35 10 69 6 81 -8z m206
-44 c-14 -28 -26 -66 -26 -86 0 -24 -4 -35 -15 -35 -11 0 -15 11 -15 38 0 21
-5 43 -12 50 -7 7 -9 12 -5 12 3 0 -5 12 -18 26 -30 33 -31 44 -4 44 14 0 24
-10 32 -32 6 -18 10 -36 9 -40 -5 -19 10 -4 38 38 41 58 49 51 16 -15z m169
33 c33 -35 33 -84 1 -121 -32 -37 -99 -39 -127 -4 -26 31 -25 91 2 125 29 37
90 37 124 0z m95 -48 c0 -67 2 -75 21 -81 38 -12 54 17 52 90 -2 49 1 65 11
65 29 0 36 -91 11 -140 -17 -33 -43 -44 -85 -35 -39 9 -50 31 -50 103 0 61 4
72 27 72 10 0 13 -19 13 -74z m262 24 c18 -27 36 -50 41 -50 4 0 7 20 7 43 0
48 5 58 26 50 21 -8 20 -173 0 -173 -19 0 -37 19 -72 74 -30 48 -45 59 -38 29
2 -10 5 -35 8 -55 3 -32 1 -38 -15 -38 -17 0 -19 8 -19 85 0 103 13 110 62 35z
m206 41 c46 -1 40 -21 -6 -21 -45 0 -52 -4 -45 -31 4 -14 14 -19 39 -19 19 0
34 -4 34 -10 0 -5 -15 -10 -34 -10 -26 0 -35 -5 -39 -22 -8 -29 5 -36 55 -31
31 4 39 2 36 -8 -3 -9 -25 -15 -66 -17 l-62 -3 0 90 0 90 28 -4 c15 -2 42 -4
60 -4z m729 -13 c22 -25 39 -63 23 -53 -6 4 -7 -5 -4 -22 8 -41 -21 -73 -73
-80 -35 -5 -45 -2 -67 20 -17 17 -26 37 -26 58 0 28 2 30 17 18 15 -13 15 -12
2 9 -13 21 -12 25 14 48 36 31 86 32 114 2z m212 -50 c-1 -40 -5 -81 -8 -91
-6 -15 -9 -16 -26 -3 -17 12 -18 17 -7 40 7 15 12 49 12 76 0 38 4 50 15 50
12 0 15 -14 14 -72z m86 62 c3 -5 2 -10 -4 -10 -5 0 -13 5 -16 10 -3 6 -2 10
4 10 5 0 13 -4 16 -10z m332 -22 c-3 -7 -5 -2 -5 12 0 14 2 19 5 13 2 -7 2
-19 0 -25z m20 0 c-3 -7 -5 -2 -5 12 0 14 2 19 5 13 2 -7 2 -19 0 -25z m-3164
8 c22 -17 22 -54 0 -78 -16 -18 -16 -21 1 -48 14 -25 15 -30 3 -30 -8 0 -24
16 -36 35 -22 38 -50 46 -52 15 -3 -39 -4 -43 -16 -47 -8 -3 -11 16 -9 69 1
40 -2 79 -7 86 -13 17 92 16 116 -2z m1977 4 c0 -5 -17 -10 -37 -10 -21 0 -48
-3 -60 -6 -17 -5 -23 -2 -23 10 0 13 11 16 60 16 33 0 60 -4 60 -10z m169 -16
c24 -30 27 -81 8 -108 -15 -20 -74 -36 -110 -29 -24 5 -26 9 -29 84 l-3 79 57
0 c49 0 59 -3 77 -26z m484 1 c10 -14 15 -30 12 -35 -3 -5 1 -22 10 -37 15
-26 15 -23 -1 25 -5 14 -3 14 10 -2 18 -22 21 -42 7 -50 -5 -3 -23 16 -40 42
l-31 47 0 -62 c0 -46 -4 -63 -13 -63 -10 0 -14 20 -15 72 0 39 1 75 4 80 10
16 39 7 57 -17z m232 15 c3 -5 1 -10 -4 -10 -6 0 -11 5 -11 10 0 6 2 10 4 10
3 0 8 -4 11 -10z m655 6 c0 -3 -4 -8 -10 -11 -5 -3 -10 -1 -10 4 0 6 5 11 10
11 6 0 10 -2 10 -4z m210 -6 c0 -12 -17 -12 -45 0 -17 7 -15 9 13 9 17 1 32
-3 32 -9z m-240 -4 c0 -2 -7 -7 -16 -10 -8 -3 -12 -2 -9 4 6 10 25 14 25 6z
m-1602 -38 c-2 -9 10 -12 40 -10 33 3 42 0 42 -12 0 -12 -10 -16 -41 -16 -38
0 -40 -2 -37 -27 3 -26 5 -27 50 -24 40 2 47 0 42 -13 -5 -12 -21 -16 -65 -16
l-59 0 0 58 c0 32 3 62 7 65 11 11 23 8 21 -5z m970 -33 c3 -3 -9 -5 -26 -5
-18 0 -32 5 -32 10 0 10 47 6 58 -5z m-610 -68 c2 -10 -3 -17 -12 -17 -18 0
-29 16 -21 31 9 14 29 6 33 -14z m1537 3 c0 -8 -8 -16 -17 -18 -13 -2 -18 3
-18 18 0 15 5 20 18 18 9 -2 17 -10 17 -18z m-915 2 c0 -5 -7 -9 -15 -9 -8 0
-15 4 -15 9 0 4 7 8 15 8 8 0 15 -4 15 -8z m694 -1 c-8 -9 -44 -11 -44 -3 0 4
11 8 25 8 13 0 22 -2 19 -5z m139 -8 c-13 -2 -33 -2 -45 0 -13 2 -3 4 22 4 25
0 35 -2 23 -4z"/>
<path d="M7185 4980 c3 -5 11 -10 16 -10 6 0 7 5 4 10 -3 6 -11 10 -16 10 -6
0 -7 -4 -4 -10z"/>
<path d="M5914 3085 c-4 -9 -3 -45 1 -81 l7 -67 55 6 c77 8 103 27 103 77 0
58 -28 80 -102 80 -43 0 -60 -4 -64 -15z"/>
<path d="M7273 3080 c-44 -26 -66 -74 -66 -140 0 -60 17 -102 57 -140 40 -36
138 -41 185 -8 59 40 76 72 76 143 0 72 -17 103 -75 143 -43 29 -131 31 -177
2z"/>
<path d="M8291 3054 c0 -11 3 -14 6 -6 3 7 2 16 -1 19 -3 4 -6 -2 -5 -13z"/>
<path d="M6982 3020 c-25 -33 -30 -56 -6 -25 18 24 36 55 31 55 -2 0 -13 -13
-25 -30z"/>
<path d="M6989 2983 c-13 -16 -12 -17 4 -4 9 7 17 15 17 17 0 8 -8 3 -21 -13z"/>
<path d="M8261 2984 c0 -11 3 -14 6 -6 3 7 2 16 -1 19 -3 4 -6 -2 -5 -13z"/>
<path d="M9285 3190 c-2 -3 5 -6 15 -7 11 -1 22 2 24 5 3 4 -4 8 -15 8 -11 0
-22 -3 -24 -6z"/>
<path d="M8557 3080 c-3 -8 -17 -54 -31 -103 -15 -48 -29 -94 -32 -102 -5 -12
7 -15 68 -15 41 0 77 3 81 6 6 6 -52 177 -72 212 -8 14 -10 15 -14 2z"/>
<path d="M9002 3102 l-33 -3 3 -77 3 -77 62 0 c76 0 98 17 98 74 0 66 -41 92
-133 83z"/>
<path d="M7112 2434 c-34 -24 -29 -99 8 -104 51 -8 80 16 80 64 0 54 -41 73
-88 40z"/>
<path d="M7690 2349 c0 -5 5 -7 10 -4 6 3 10 8 10 11 0 2 -4 4 -10 4 -5 0 -10
-5 -10 -11z"/>
<path d="M8391 2407 c-1 -22 -5 -45 -8 -50 -3 -6 -1 -7 4 -4 6 4 13 0 17 -8 8
-21 62 -19 76 3 9 14 10 13 4 -8 -3 -14 -3 -22 1 -18 12 12 14 108 2 101 -6
-4 -8 0 -5 9 5 12 -3 15 -41 15 l-47 0 -3 -40z"/>
<path d="M5907 2444 c-9 -10 -9 -52 1 -57 4 -3 20 -3 35 0 23 5 28 10 25 32
-2 19 -9 27 -28 29 -14 2 -29 0 -33 -4z"/>
<path d="M8030 2391 c0 -33 3 -62 8 -64 4 -3 20 -3 35 0 37 7 53 41 41 85 -8
29 -14 33 -47 36 l-37 3 0 -60z"/>
<path d="M10850 5250 c0 -5 7 -10 15 -10 8 0 15 5 15 10 0 6 -7 10 -15 10 -8
0 -15 -4 -15 -10z"/>
<path d="M10800 5230 c0 -6 7 -10 15 -10 8 0 15 2 15 4 0 2 -7 6 -15 10 -8 3
-15 1 -15 -4z"/>
<path d="M7852 5200 c0 -14 2 -19 5 -12 2 6 2 18 0 25 -3 6 -5 1 -5 -13z"/>
<path d="M7876 5123 c-6 -14 -5 -15 5 -6 7 7 10 15 7 18 -3 3 -9 -2 -12 -12z"/>
<path d="M9260 4945 c0 -8 5 -15 10 -15 6 0 10 7 10 15 0 8 -4 15 -10 15 -5 0
-10 -7 -10 -15z"/>
<path d="M9100 4790 c0 -5 5 -10 10 -10 6 0 10 5 10 10 0 6 -4 10 -10 10 -5 0
-10 -4 -10 -10z"/>
<path d="M7478 4733 c7 -3 16 -2 19 1 4 3 -2 6 -13 5 -11 0 -14 -3 -6 -6z"/>
<path d="M7403 4723 c-13 -2 -23 -9 -23 -15 0 -6 -9 -8 -21 -5 -12 3 -31 2
-43 -3 -11 -4 -50 -13 -85 -19 -35 -7 -71 -16 -80 -21 -9 -4 -36 -14 -61 -21
-58 -16 -58 -16 -74 -18 -7 0 -24 -29 -36 -63 -13 -35 -28 -69 -33 -76 -7 -9
-6 -11 4 -7 16 6 39 51 39 76 0 9 6 22 14 28 15 13 26 -4 26 -42 0 -16 3 -18
9 -9 4 8 11 13 15 12 4 -1 20 3 36 10 20 8 27 17 23 28 -4 10 -2 13 6 8 16
-10 105 21 127 45 11 12 25 17 38 13 17 -4 18 -3 6 5 -13 10 -13 11 0 11 13 0
13 1 0 10 -11 7 -5 8 20 4 26 -4 31 -3 20 5 -12 9 -9 11 15 11 17 0 48 9 70
20 39 19 35 22 -12 13z"/>
<path d="M7000 4553 c0 -10 -3 -29 -6 -43 -5 -17 -3 -22 4 -15 15 15 26 75 13
75 -6 0 -11 -8 -11 -17z"/>
<path d="M6917 4423 c-4 -3 -7 -11 -7 -17 0 -6 5 -5 12 2 6 6 9 14 7 17 -3 3
-9 2 -12 -2z"/>
<path d="M8810 3980 c-13 -8 -13 -10 2 -10 9 0 20 5 23 10 8 13 -5 13 -25 0z"/>
<path d="M6328 3813 c6 -2 18 -2 25 0 6 3 1 5 -13 5 -14 0 -19 -2 -12 -5z"/>
<path d="M6138 3783 c7 -3 16 -2 19 1 4 3 -2 6 -13 5 -11 0 -14 -3 -6 -6z"/>
<path d="M6125 3660 l-40 -7 37 -2 c20 0 38 -4 40 -8 2 -5 28 -5 58 -2 l55 6
-60 3 c-58 3 -59 3 -20 10 l40 7 -35 0 c-19 0 -53 -3 -75 -7z"/>
</g>
</svg>
